<?xml version="1.0" encoding="utf-8"?>
<!-- Generator: Adobe Illustrator 21.0.0, SVG Export Plug-In . SVG Version: 6.00 Build 0)  -->
<svg version="1.1" id="Layer_1" xmlns="http://www.w3.org/2000/svg" xmlns:xlink="http://www.w3.org/1999/xlink" x="0px" y="0px"
	 viewBox="0 0 551 164" style="enable-background:new 0 0 551 164;" xml:space="preserve">
<style type="text/css">
	.st0{clip-path:url(#SVGID_2_);fill:#16C18C;}
	.st1{clip-path:url(#SVGID_2_);fill:#15C08D;}
	.st2{clip-path:url(#SVGID_2_);fill:#14BF8D;}
	.st3{clip-path:url(#SVGID_2_);fill:#13BE8E;}
	.st4{clip-path:url(#SVGID_2_);fill:#12BD8F;}
	.st5{clip-path:url(#SVGID_2_);fill:#11BC90;}
	.st6{clip-path:url(#SVGID_2_);fill:#10BB90;}
	.st7{clip-path:url(#SVGID_2_);fill:#0FBA91;}
	.st8{clip-path:url(#SVGID_2_);fill:#0EB992;}
	.st9{clip-path:url(#SVGID_2_);fill:#0DB893;}
	.st10{clip-path:url(#SVGID_2_);fill:#0CB793;}
	.st11{clip-path:url(#SVGID_2_);fill:#0BB694;}
	.st12{clip-path:url(#SVGID_2_);fill:#0BB495;}
	.st13{clip-path:url(#SVGID_2_);fill:#0AB396;}
	.st14{clip-path:url(#SVGID_2_);fill:#09B296;}
	.st15{clip-path:url(#SVGID_2_);fill:#08B197;}
	.st16{clip-path:url(#SVGID_2_);fill:#07B098;}
	.st17{clip-path:url(#SVGID_2_);fill:#06AF99;}
	.st18{clip-path:url(#SVGID_2_);fill:#05AE99;}
	.st19{clip-path:url(#SVGID_2_);fill:#04AD9A;}
	.st20{clip-path:url(#SVGID_2_);fill:#03AC9B;}
	.st21{clip-path:url(#SVGID_2_);fill:#02AB9C;}
	.st22{clip-path:url(#SVGID_2_);fill:#01AA9C;}
	.st23{clip-path:url(#SVGID_2_);fill:#00A99D;}
	.st24{fill:none;stroke:#000000;stroke-miterlimit:10;}
	.st25{enable-background:new    ;}
</style>
<g>
	<g>
		<defs>
			<path id="SVGID_1_" d="M547,90.9"/>
		</defs>
		<clipPath id="SVGID_2_">
			<use xlink:href="#SVGID_1_"  style="overflow:visible;"/>
		</clipPath>
		<path class="st0" d="M547,90.9L547,90.9L547,90.9z"/>
		<path class="st0" d="M547,90.9L547,90.9L547,90.9z"/>
		<path class="st1" d="M547,90.9L547,90.9L547,90.9z"/>
		<path class="st2" d="M547,90.9L547,90.9L547,90.9z"/>
		<path class="st3" d="M547,90.9L547,90.9L547,90.9z"/>
		<path class="st4" d="M547,90.9L547,90.9L547,90.9z"/>
		<path class="st5" d="M547,90.9L547,90.9L547,90.9z"/>
		<path class="st6" d="M547,90.9L547,90.9L547,90.9z"/>
		<path class="st7" d="M547,90.9L547,90.9L547,90.9z"/>
		<path class="st8" d="M547,90.9L547,90.9L547,90.9z"/>
		<path class="st9" d="M547,90.9L547,90.9L547,90.9z"/>
		<path class="st10" d="M547,90.9L547,90.9L547,90.9z"/>
		<path class="st11" d="M547,90.9L547,90.9L547,90.9z"/>
		<path class="st12" d="M547,90.9L547,90.9L547,90.9z"/>
		<path class="st13" d="M547,90.9L547,90.9L547,90.9z"/>
		<path class="st14" d="M547,90.9L547,90.9L547,90.9z"/>
		<path class="st15" d="M547,90.9L547,90.9L547,90.9z"/>
		<path class="st16" d="M547,90.9L547,90.9L547,90.9z"/>
		<path class="st17" d="M547,90.9L547,90.9L547,90.9z"/>
		<path class="st18" d="M547,90.9L547,90.9L547,90.9z"/>
		<path class="st19" d="M547,90.9L547,90.9L547,90.9z"/>
		<path class="st20" d="M547,90.9L547,90.9L547,90.9z"/>
		<path class="st21" d="M547,90.9L547,90.9L547,90.9z"/>
		<path class="st22" d="M547,90.9L547,90.9L547,90.9z"/>
		<path class="st23" d="M547,90.9L547,90.9L547,90.9z"/>
		<path class="st23" d="M547,90.9L547,90.9L547,90.9z"/>
	</g>
	<path class="st24" d="M547,90.9"/>
</g>
<g class="st25">
	<path class="st24" d="M9,12.1h27.6c17.8,0,29.9,0.8,36.2,2.4c6.3,1.6,11.1,4.3,14.3,8c3.3,3.7,5.3,7.8,6.1,12.4
		c0.8,4.5,1.2,13.5,1.2,26.8v49.2c0,12.6-0.6,21.1-1.8,25.3c-1.2,4.3-3.3,7.6-6.3,10s-6.7,4.1-11.1,5s-11,1.4-19.8,1.4H9V12.1z
		 M45.9,36.2v92.5c5.3,0,8.6-1.1,9.8-3.2c1.2-2.1,1.8-7.9,1.8-17.2V53.6c0-6.4-0.2-10.4-0.6-12.2c-0.4-1.8-1.3-3.1-2.8-4
		C52.7,36.6,49.9,36.2,45.9,36.2z"/>
	<path class="st24" d="M145.2,12.1v140.6h-36.9V12.1H145.2z"/>
	<path class="st24" d="M244.7,63.9h-36.9V51.1c0-8-0.4-13.1-1.1-15.1c-0.7-2-2.4-3-5-3c-2.3,0-3.8,0.9-4.6,2.6
		c-0.8,1.7-1.2,6.2-1.2,13.4v67.5c0,6.3,0.4,10.5,1.2,12.5c0.8,2,2.5,3,4.9,3c2.7,0,4.5-1.1,5.5-3.4s1.4-6.7,1.4-13.2V98.6h-7.5
		V77.3h43.2v75.5h-23.2l-3.4-10.1c-2.5,4.3-5.7,7.6-9.5,9.8c-3.8,2.2-8.4,3.3-13.6,3.3c-6.2,0-12-1.5-17.4-4.5
		c-5.4-3-9.5-6.7-12.3-11.1c-2.8-4.4-4.6-9-5.3-13.9c-0.7-4.8-1.1-12.1-1.1-21.8V62.8c0-13.4,0.7-23.2,2.2-29.3
		c1.5-6.1,5.7-11.6,12.6-16.7c6.9-5.1,15.9-7.6,26.9-7.6c10.8,0,19.8,2.2,26.9,6.6c7.1,4.4,11.8,9.6,13.9,15.7
		c2.2,6,3.2,14.8,3.2,26.4V63.9z"/>
	<path class="st24" d="M295.9,12.1v140.6H259V12.1H295.9z"/>
	<path class="st24" d="M385.1,12.1v28.1h-21.9v112.5h-36.9V40.3h-21.8V12.1H385.1z"/>
	<path class="st24" d="M450.2,12.1l21.1,140.6h-37.7l-2-25.3h-13.2l-2.2,25.3H378l18.8-140.6H450.2z M430.6,102.5
		c-1.9-15.9-3.7-35.6-5.6-59c-3.8,26.9-6.1,46.6-7.1,59H430.6z"/>
	<path class="st24" d="M514.5,12.1v112.5h22.5v28.1h-59.4V12.1H514.5z"/>
</g>
<g class="st25">
	<path class="st24" d="M10.9,10.2h27.6c17.8,0,29.9,0.8,36.2,2.4c6.3,1.6,11.1,4.3,14.3,8c3.3,3.7,5.3,7.8,6.1,12.4
		c0.8,4.5,1.2,13.5,1.2,26.8V109c0,12.6-0.6,21.1-1.8,25.3c-1.2,4.3-3.3,7.6-6.3,10s-6.7,4.1-11.1,5s-11,1.4-19.8,1.4H10.9V10.2z
		 M47.9,34.2v92.5c5.3,0,8.6-1.1,9.8-3.2c1.2-2.1,1.8-7.9,1.8-17.2V51.7c0-6.4-0.2-10.4-0.6-12.2c-0.4-1.8-1.3-3.1-2.8-4
		C54.6,34.6,51.9,34.2,47.9,34.2z"/>
	<path class="st24" d="M147.1,10.2v140.6h-36.9V10.2H147.1z"/>
	<path class="st24" d="M246.7,61.9h-36.9V49.2c0-8-0.4-13.1-1.1-15.1c-0.7-2-2.4-3-5-3c-2.3,0-3.8,0.9-4.6,2.6
		c-0.8,1.7-1.2,6.2-1.2,13.4v67.5c0,6.3,0.4,10.5,1.2,12.5c0.8,2,2.5,3,4.9,3c2.7,0,4.5-1.1,5.5-3.4s1.4-6.7,1.4-13.2V96.7h-7.5
		V75.3h43.2v75.5h-23.2l-3.4-10.1c-2.5,4.3-5.7,7.6-9.5,9.8c-3.8,2.2-8.4,3.3-13.6,3.3c-6.2,0-12-1.5-17.4-4.5
		c-5.4-3-9.5-6.7-12.3-11.1c-2.8-4.4-4.6-9-5.3-13.9c-0.7-4.8-1.1-12.1-1.1-21.8V60.8c0-13.4,0.7-23.2,2.2-29.3
		c1.5-6.1,5.7-11.6,12.6-16.7c6.9-5.1,15.9-7.6,26.9-7.6c10.8,0,19.8,2.2,26.9,6.6c7.1,4.4,11.8,9.6,13.9,15.7
		c2.2,6,3.2,14.8,3.2,26.4V61.9z"/>
	<path class="st24" d="M297.9,10.2v140.6H261V10.2H297.9z"/>
	<path class="st24" d="M387.1,10.2v28.1h-21.9v112.5h-36.9V38.3h-21.8V10.2H387.1z"/>
	<path class="st24" d="M452.2,10.2l21.1,140.6h-37.7l-2-25.3h-13.2l-2.2,25.3H380l18.8-140.6H452.2z M432.6,100.6
		c-1.9-15.9-3.7-35.6-5.6-59c-3.8,26.9-6.1,46.6-7.1,59H432.6z"/>
	<path class="st24" d="M516.5,10.2v112.5h22.5v28.1h-59.4V10.2H516.5z"/>
</g>
</svg>
